<svg xmlns="http://www.w3.org/2000/svg" version="1.1" xmlns:xlink="http://www.w3.org/1999/xlink" xmlns:svgjs="http://svgjs.dev/svgjs" width="2000" height="702" viewBox="0 0 2000 702"><g transform="matrix(1,0,0,1,-1.2121212121212466,-2.3804064956363504)"><svg viewBox="0 0 396 139" data-background-color="#ffffff" preserveAspectRatio="xMidYMid meet" height="702" width="2000" xmlns="http://www.w3.org/2000/svg" xmlns:xlink="http://www.w3.org/1999/xlink"><g id="tight-bounds" transform="matrix(1,0,0,1,0.2400000000000091,0.4713340497057743)"><svg viewBox="0 0 395.52 138.05733190058848" height="138.05733190058848" width="395.52"><g><svg viewBox="0 0 395.52 138.05733190058848" height="138.05733190058848" width="395.52"><g><svg viewBox="0 0 395.52 138.05733190058848" height="138.05733190058848" width="395.52"><g id="textblocktransform"><svg viewBox="0 0 395.52 138.05733190058848" height="138.05733190058848" width="395.52" id="textblock"><g><svg viewBox="0 0 395.52 73.46336464560204" height="73.46336464560204" width="395.52"><g transform="matrix(1,0,0,1,0,0)"><svg width="395.52" viewBox="1 -37.5 234.19 43.5" height="73.46336464560204" data-palette-color="#010c80"><path d="M1-37.5L1-37.5 40.35-37.5Q43.7-37.5 45.9-36.23 48.1-34.95 49.23-32.95 50.35-30.95 50.35-28.75L50.35-28.75Q50.35-26.55 49.2-24.48 48.05-22.4 45.73-21.1 43.4-19.8 39.9-19.8L39.9-19.8Q39.9-19.8 39.88-19.8 39.85-19.8 39.88-19.78 39.9-19.75 39.9-19.75L39.9-19.75Q43.95-19.75 46.6-18.3 49.25-16.85 50.55-14.6 51.85-12.35 51.85-9.85L51.85-9.85Q51.85-8 51.13-6.25 50.4-4.5 48.95-3.08 47.5-1.65 45.35-0.83 43.2 0 40.35 0L40.35 0 1 0Q1-3.4 1-6.78 1-10.15 1-13.55 1-16.95 1-20.33 1-23.7 1-27.1L1-27.1Q1-29.7 1-32.3 1-34.9 1-37.5ZM20.7-17.8L20.7-17.8Q20.7-17.25 20.7-16.7 20.7-16.15 20.7-15.6L20.7-15.6Q20.7-15.2 20.7-14.83 20.7-14.45 20.7-14.1 20.7-13.75 20.7-13.4L20.7-13.4Q20.7-13.35 20.7-13.35 20.7-13.35 20.75-13.35L20.75-13.35 27.85-13.35Q29.2-13.35 29.88-14.05 30.55-14.75 30.55-15.65L30.55-15.65Q30.55-16.1 30.4-16.48 30.25-16.85 29.98-17.18 29.7-17.5 29.28-17.68 28.85-17.85 28.3-17.85L28.3-17.85 20.75-17.85Q20.75-17.85 20.73-17.82 20.7-17.8 20.7-17.8ZM28.05-24.85L20.75-24.85Q20.7-24.85 20.7-24.83 20.7-24.8 20.7-24.8L20.7-24.8Q20.7-24.5 20.7-24.13 20.7-23.75 20.7-23.38 20.7-23 20.7-22.6L20.7-22.6Q20.7-22.05 20.7-21.48 20.7-20.9 20.7-20.4L20.7-20.4Q20.7-20.35 20.7-20.35 20.7-20.35 20.75-20.35L20.75-20.35 27.6-20.35Q28.5-20.35 29.1-20.68 29.7-21 30-21.53 30.3-22.05 30.3-22.65L30.3-22.65Q30.3-23.5 29.73-24.18 29.15-24.85 28.05-24.85L28.05-24.85ZM70.6 0L53.3 0Q53.3-2.3 53.3-4.58 53.3-6.85 53.3-9.13 53.3-11.4 53.3-13.65L53.3-13.65Q53.3-14.6 53.3-15.55 53.3-16.5 53.3-17.45L53.3-17.45Q56.2-17.45 59.07-17.45 61.95-17.45 64.85-17.45 67.75-17.45 70.6-17.45L70.6-17.45Q70.6-14.55 70.6-11.65 70.6-8.75 70.6-5.83 70.6-2.9 70.6 0L70.6 0ZM53.3-17.45L53.3-17.45Q53.3-20.85 53.3-24.25 53.3-27.65 53.3-31L53.3-31 70.6-31Q70.6-29.35 70.6-27.7 70.6-26.05 70.6-24.4 70.6-22.75 70.6-21.1L70.6-21.1Q70.6-21.1 70.57-21.08 70.55-21.05 70.55-21.05L70.55-21.05Q66.25-20.15 61.92-19.25 57.6-18.35 53.3-17.45ZM112.5 0L95.2 0Q95.2-3.9 95.2-7.9 95.2-11.9 95.2-15.8L95.2-15.8Q95.2-17.25 94.47-17.85 93.75-18.45 92.75-18.5 91.75-18.55 90.92-18.25 90.1-17.95 89.9-17.65L89.9-17.65 93.9-30.5Q95.7-31.3 97.75-31.7 99.8-32.1 101.8-32.1L101.8-32.1Q104.6-32.1 107.02-31.2 109.45-30.3 110.97-28.35 112.5-26.4 112.5-23.15L112.5-23.15 112.5 0ZM89.9 0L72.6 0Q72.6-3.2 72.6-6.43 72.6-9.65 72.6-12.88 72.6-16.1 72.6-19.3L72.6-19.3Q72.6-22.25 72.6-25.18 72.6-28.1 72.6-31L72.6-31Q75.5-31 78.37-31 81.25-31 84.15-31 87.05-31 89.9-31L89.9-31Q89.9-29.2 89.9-27.58 89.9-25.95 89.9-24.33 89.9-22.7 89.9-21.08 89.9-19.45 89.9-17.65L89.9-17.65Q89.9-17 89.9-16.38 89.9-15.75 89.9-15.05L89.9-15.05Q89.9-11.35 89.9-7.45 89.9-3.55 89.9 0L89.9 0ZM116.89-29.2L116.89-29.2 116.89-17.25Q119.14-18.7 122.14-19.45 125.14-20.2 128.09-20.2L128.09-20.2Q129.99-20.2 131.72-19.85 133.44-19.5 134.77-18.78 136.09-18.05 136.87-16.93 137.64-15.8 137.64-14.25L137.64-14.25Q137.64-14.2 137.64-14.13 137.64-14.05 137.64-13.98 137.64-13.9 137.64-13.8L137.64-13.8Q136.89-14.8 135.72-15.6 134.54-16.4 133.07-16.95 131.59-17.5 129.94-17.78 128.29-18.05 126.54-18.05L126.54-18.05Q123.84-18.05 121.74-17.53 119.64-17 118.12-16.05 116.59-15.1 115.59-13.85 114.59-12.6 114.09-11.2 113.59-9.8 113.59-8.35L113.59-8.35Q113.59-5.95 114.59-4.15 115.59-2.35 117.32-1.15 119.04 0.05 121.22 0.68 123.39 1.3 125.74 1.3L125.74 1.3Q127.69 1.3 129.67 0.93 131.64 0.55 133.44-0.35L133.44-0.35Q134.49-2.8 135.57-5.25 136.64-7.7 137.69-10.15L137.69-10.15Q137.09-8.7 135.94-8.35 134.79-8 133.89-8L133.89-8Q132.04-8 131.04-8.78 130.04-9.55 130.04-10.5L130.04-10.5Q130.04-11.45 131.02-12.2 131.99-12.95 133.89-12.95L133.89-12.95Q134.74-12.95 135.59-12.73 136.44-12.5 137.04-11.95 137.64-11.4 137.64-10.5L137.64-10.5Q137.64-7.9 137.64-5.28 137.64-2.65 137.64 0L137.64 0Q139.39 0 141.14 0 142.89 0 144.64 0 146.39 0 148.14 0 149.89 0 151.64 0 153.39 0 155.14 0L155.14 0Q155.14-4.85 155.14-9.7 155.14-14.55 155.14-19.4L155.14-19.4Q155.14-22.7 153.34-25.15 151.54-27.6 148.47-29.25 145.39-30.9 141.49-31.7 137.59-32.5 133.39-32.5L133.39-32.5Q129.09-32.5 124.82-31.68 120.54-30.85 116.89-29.2ZM157.09-31L174.39-31Q174.39-28 174.39-24.98 174.39-21.95 174.39-18.93 174.39-15.9 174.39-12.85L174.39-12.85Q174.39-9.65 174.39-6.45 174.39-3.25 174.39 0L174.39 0 157.09 0Q157.09-4.95 157.09-9.9 157.09-14.85 157.09-19.8L157.09-19.8Q157.09-22.6 157.09-25.4 157.09-28.2 157.09-31L157.09-31ZM174.34-11.9L174.34-11.9 177.04-25.35Q177.49-27.5 178.82-28.93 180.14-30.35 181.94-31.1 183.74-31.85 185.64-32.02 187.54-32.2 189.14-31.88 190.74-31.55 191.69-30.8L191.69-30.8 187.89-12.2Q186.44-13.4 184.37-13.85 182.29-14.3 180.19-14.18 178.09-14.05 176.49-13.45 174.89-12.85 174.34-11.9ZM223.09 6L206.14 6Q207.04 5 207.89 4 208.74 3 209.61 2 210.49 1 211.34 0L211.34 0 201.99 0Q200.34-5.2 198.69-10.35 197.04-15.5 195.39-20.68 193.74-25.85 192.09-31L192.09-31 210.44-31Q211.34-25.65 212.21-20.3 213.09-14.95 213.99-9.6L213.99-9.6Q213.99-9.6 214.01-9.45 214.04-9.3 214.04-9.3L214.04-9.3Q214.04-9.3 214.06-9.38 214.09-9.45 214.09-9.5 214.09-9.55 214.09-9.55L214.09-9.55Q214.74-13.15 215.34-16.73 215.94-20.3 216.56-23.88 217.19-27.45 217.79-31L217.79-31 235.19-31Q233.19-24.8 231.16-18.65 229.14-12.5 227.14-6.35 225.14-0.2 223.09 6L223.09 6Z" opacity="1" transform="matrix(1,0,0,1,0,0)" fill="#010c80" class="wordmark-text-0" data-fill-palette-color="primary" id="text-0"></path></svg></g></svg></g><g transform="matrix(1,0,0,1,0,90.80630191767719)"><svg viewBox="0 0 395.52 47.2510299829113" height="47.2510299829113" width="395.52"><g transform="matrix(1,0,0,1,0,0)"><svg width="395.52" viewBox="3 -37.7 321.81 38.45" height="47.2510299829113" data-palette-color="#77d4fc"><path d="M25.35 0L18.5 0 12.4-13.95 11.8-13.95 9.35-13.95 9.35 0 3 0 3-34.55 11.15-34.55Q23.65-34.55 23.65-24.4L23.65-24.4Q23.65-21.25 22.25-18.82 20.85-16.4 18.05-15.15L18.05-15.15 25.35 0ZM11.45-18.55Q14.4-18.55 15.73-19.95 17.05-21.35 17.05-24.4L17.05-24.4Q17.05-27.25 15.68-28.58 14.3-29.9 11.15-29.9L11.15-29.9 9.35-29.9 9.35-18.55 11.45-18.55ZM47.25-13.85Q47.25-13.4 47.1-11.3L47.1-11.3 33.45-11.3Q33.65-7.2 34.87-5.58 36.1-3.95 38.35-3.95L38.35-3.95Q39.9-3.95 41.15-4.48 42.4-5 43.85-6.15L43.85-6.15 46.4-2.65Q42.9 0.75 38 0.75L38 0.75Q32.8 0.75 30.02-2.85 27.25-6.45 27.25-13L27.25-13Q27.25-19.55 29.9-23.35 32.55-27.15 37.4-27.15L37.4-27.15Q42.05-27.15 44.65-23.78 47.25-20.4 47.25-13.85L47.25-13.85ZM41.25-15.3L41.25-15.65Q41.25-19.4 40.35-21.13 39.45-22.85 37.45-22.85L37.45-22.85Q35.6-22.85 34.62-21.18 33.65-19.5 33.45-15.3L33.45-15.3 41.25-15.3ZM61.05-27.15Q63.2-27.15 64.95-26.43 66.7-25.7 68.3-24.15L68.3-24.15 65.65-20.65Q64.55-21.55 63.57-21.98 62.6-22.4 61.45-22.4L61.45-22.4Q59.2-22.4 58.05-20.28 56.9-18.15 56.9-13.1L56.9-13.1Q56.9-8.2 58.07-6.2 59.25-4.2 61.45-4.2L61.45-4.2Q62.55-4.2 63.45-4.6 64.35-5 65.55-5.85L65.55-5.85 68.3-2.3Q65.1 0.75 61.15 0.75L61.15 0.75Q56.05 0.75 53.22-2.73 50.4-6.2 50.4-13L50.4-13Q50.4-17.4 51.7-20.6 53-23.8 55.42-25.48 57.85-27.15 61.05-27.15L61.05-27.15ZM80.74-27.15Q85.74-27.15 88.52-23.65 91.29-20.15 91.29-13.25L91.29-13.25Q91.29-6.65 88.49-2.95 85.69 0.75 80.74 0.75L80.74 0.75Q75.79 0.75 72.99-2.88 70.19-6.5 70.19-13.25L70.19-13.25Q70.19-19.95 72.99-23.55 75.79-27.15 80.74-27.15L80.74-27.15ZM80.74-22.5Q78.59-22.5 77.59-20.38 76.59-18.25 76.59-13.25L76.59-13.25Q76.59-8.2 77.59-6.08 78.59-3.95 80.74-3.95L80.74-3.95Q82.89-3.95 83.89-6.08 84.89-8.2 84.89-13.25L84.89-13.25Q84.89-18.3 83.89-20.4 82.89-22.5 80.74-22.5L80.74-22.5ZM107.49-27.1Q108.64-27.1 109.54-26.75L109.54-26.75 108.54-20.85Q107.54-21.1 106.69-21.1L106.69-21.1Q104.79-21.1 103.69-19.45 102.59-17.8 101.99-14.55L101.99-14.55 101.99 0 95.84 0 95.84-26.45 101.19-26.45 101.64-21.85Q103.49-27.1 107.49-27.1L107.49-27.1ZM125.34-37.7L131.49-37.05 131.49 0 126.04 0 125.74-3.05Q123.39 0.75 119.69 0.75L119.69 0.75Q115.59 0.75 113.41-2.93 111.24-6.6 111.24-13.2L111.24-13.2Q111.24-17.4 112.36-20.58 113.49-23.75 115.49-25.45 117.49-27.15 120.09-27.15L120.09-27.15Q123.29-27.15 125.34-24.5L125.34-24.5 125.34-37.7ZM121.44-3.9Q122.59-3.9 123.51-4.7 124.44-5.5 125.34-7L125.34-7 125.34-19.85Q123.74-22.55 121.69-22.55L121.69-22.55Q117.64-22.55 117.64-13.25L117.64-13.25Q117.64-8.2 118.64-6.05 119.64-3.9 121.44-3.9L121.44-3.9ZM156.43-27.15Q161.43-27.15 164.21-23.65 166.98-20.15 166.98-13.25L166.98-13.25Q166.98-6.65 164.18-2.95 161.38 0.75 156.43 0.75L156.43 0.75Q151.48 0.75 148.68-2.88 145.88-6.5 145.88-13.25L145.88-13.25Q145.88-19.95 148.68-23.55 151.48-27.15 156.43-27.15L156.43-27.15ZM156.43-22.5Q154.28-22.5 153.28-20.38 152.28-18.25 152.28-13.25L152.28-13.25Q152.28-8.2 153.28-6.08 154.28-3.95 156.43-3.95L156.43-3.95Q158.58-3.95 159.58-6.08 160.58-8.2 160.58-13.25L160.58-13.25Q160.58-18.3 159.58-20.4 158.58-22.5 156.43-22.5L156.43-22.5ZM181.23-33.05Q179.83-33.05 179.16-32.3 178.48-31.55 178.48-30L178.48-30 178.48-26.45 183.53-26.45 182.83-22 178.48-22 178.48 0 172.33 0 172.33-22 169.03-22 169.03-26.45 172.33-26.45 172.33-29.8Q172.33-33.4 174.43-35.55 176.53-37.7 180.43-37.7L180.43-37.7Q183.48-37.7 186.33-36.2L186.33-36.2 184.63-32.2Q182.88-33.05 181.23-33.05L181.23-33.05ZM205.93-34.25Q210.98-34.25 213.58-29.9 216.18-25.55 216.18-16.8L216.18-16.8Q216.18 0.75 205.93 0.75L205.93 0.75Q195.58 0.75 195.58-16.8L195.58-16.8Q195.58-34.25 205.93-34.25L205.93-34.25ZM205.93-29.6Q204.48-29.6 203.6-28.48 202.73-27.35 202.3-24.58 201.88-21.8 201.88-16.8L201.88-16.8Q201.88-11.75 202.3-8.97 202.73-6.2 203.6-5.08 204.48-3.95 205.93-3.95L205.93-3.95Q207.38-3.95 208.23-5.08 209.08-6.2 209.48-8.97 209.88-11.75 209.88-16.8L209.88-16.8Q209.88-21.85 209.48-24.6 209.08-27.35 208.23-28.48 207.38-29.6 205.93-29.6L205.93-29.6ZM248.02-6.4Q248.02-5.1 248.37-4.48 248.72-3.85 249.52-3.45L249.52-3.45 248.27 0.65Q246.22 0.4 245-0.45 243.77-1.3 243.17-3.05L243.17-3.05Q240.87 0.75 236.72 0.75L236.72 0.75Q233.42 0.75 231.47-1.48 229.52-3.7 229.52-7.4L229.52-7.4Q229.52-11.7 232.2-13.95 234.87-16.2 239.97-16.2L239.97-16.2 242.02-16.2 242.02-18.05Q242.02-20.55 241.15-21.58 240.27-22.6 238.32-22.6L238.32-22.6Q235.97-22.6 232.47-21.3L232.47-21.3 231.07-25.3Q233.07-26.2 235.22-26.68 237.37-27.15 239.32-27.15L239.32-27.15Q248.02-27.15 248.02-18.35L248.02-18.35 248.02-6.4ZM238.37-3.7Q240.77-3.7 242.02-7L242.02-7 242.02-12.55 240.57-12.55Q238.02-12.55 236.84-11.4 235.67-10.25 235.67-7.85L235.67-7.85Q235.67-5.8 236.37-4.75 237.07-3.7 238.37-3.7L238.37-3.7ZM266.17-27.15Q269.02-27.15 270.67-25.1 272.32-23.05 272.32-19.6L272.32-19.6 272.32 0 266.17 0 266.17-18.9Q266.17-20.8 265.64-21.63 265.12-22.45 264.12-22.45L264.12-22.45Q262.02-22.45 259.97-18.5L259.97-18.5 259.97 0 253.82 0 253.82-26.45 259.17-26.45 259.62-23Q260.97-25.1 262.49-26.13 264.02-27.15 266.17-27.15L266.17-27.15ZM290.82-37.7L296.97-37.05 296.97 0 291.52 0 291.22-3.05Q288.87 0.75 285.17 0.75L285.17 0.75Q281.07 0.75 278.89-2.93 276.72-6.6 276.72-13.2L276.72-13.2Q276.72-17.4 277.84-20.58 278.97-23.75 280.97-25.45 282.97-27.15 285.57-27.15L285.57-27.15Q288.77-27.15 290.82-24.5L290.82-24.5 290.82-37.7ZM286.92-3.9Q288.07-3.9 288.99-4.7 289.92-5.5 290.82-7L290.82-7 290.82-19.85Q289.22-22.55 287.17-22.55L287.17-22.55Q283.12-22.55 283.12-13.25L283.12-13.25Q283.12-8.2 284.12-6.05 285.12-3.9 286.92-3.9L286.92-3.9ZM319.31-33.6L324.81-33.6 324.81 0 318.81 0 318.81-27.45 312.81-23.05 310.06-26.95 319.31-33.6Z" opacity="1" transform="matrix(1,0,0,1,0,0)" fill="#77d4fc" class="slogan-text-1" data-fill-palette-color="secondary" id="text-1"></path></svg></g></svg></g></svg></g></svg></g><g></g></svg></g><defs></defs></svg><rect width="395.52" height="138.05733190058848" fill="none" stroke="none" visibility="hidden"></rect></g></svg></g></svg>