<?xml version="1.0" standalone="no"?>
<!DOCTYPE svg PUBLIC "-//W3C//DTD SVG 20010904//EN"
 "http://www.w3.org/TR/2001/REC-SVG-20010904/DTD/svg10.dtd">
<svg version="1.0" xmlns="http://www.w3.org/2000/svg"
 width="128.000000pt" height="128.000000pt" viewBox="0 0 128.000000 128.000000"
 preserveAspectRatio="xMidYMid meet">
<metadata>
Created by potrace 1.14, written by Peter Selinger 2001-2017
</metadata>
<g transform="translate(0.000000,128.000000) scale(0.100000,-0.100000)"
fill="#000000" stroke="none">
<path d="M132 643 l3 -378 435 0 c426 0 436 0 475 22 22 11 50 32 62 45 68 73
64 198 -9 264 -30 28 -82 54 -108 54 -30 0 -24 17 9 23 40 8 91 54 112 101 36
81 6 171 -73 216 l-43 25 -433 3 -432 3 2 -378z m580 97 c13 -17 15 -26 8 -41
-13 -23 0 -20 -102 -25 l-88 -5 0 44 c0 24 2 46 4 48 3 2 39 4 82 3 67 -1 80
-4 96 -24z m10 -145 c9 -21 8 -28 -7 -45 -15 -17 -31 -20 -102 -20 l-83 0 0
45 0 45 90 0 c87 0 91 -1 102 -25z"/>
</g>
</svg>
